<svg width="105" height="105" viewBox="0 0 105 105" fill="none" xmlns="http://www.w3.org/2000/svg">
<path d="M101.278 57.6033L101.43 56.413L95.5589 54.3115L101.777 53.6951L101.919 52.5841L94.4945 53.4899L94.3372 54.7199L100.075 56.8346L93.9859 57.4675L93.8287 58.6975L100.791 61.4123L100.926 60.3509L95.0554 58.2494L101.278 57.6033Z" fill="white"/>
<path d="M93.2886 62.6387L92.9123 63.6082L94.1733 64.6983L92.9685 67.8027L91.2986 67.766L90.9006 68.7915L98.6472 68.8696L99.0741 67.7696L93.2886 62.6387ZM97.9113 67.919L93.8953 67.8192L94.8722 65.3021L97.9113 67.919Z" fill="white"/>
<path d="M88.6083 73.3369L88.0482 74.1894L93.3718 77.6874L92.0758 79.6597L92.8113 80.1429L95.9633 75.3458L95.2279 74.8626L93.9319 76.8349L88.6083 73.3369Z" fill="white"/>
<path d="M82.8271 84.2163C82.3351 83.3943 82.374 82.4398 83.1972 81.6225C84.1552 80.6714 85.5904 80.7544 86.8867 82.0602C88.2112 83.3944 88.2061 84.8086 87.2977 85.7104C86.4816 86.5206 85.4986 86.5524 84.7084 86.0545L84.0059 86.752C85.325 87.6266 86.8036 87.4127 87.8681 86.3559C89.3159 84.9187 89.2029 82.9172 87.6248 81.3275C86.0748 79.7662 84.11 79.5045 82.6339 80.9699C81.5197 82.0761 81.2244 83.5529 82.1246 84.9138L82.8271 84.2163Z" fill="white"/>
<path d="M77.8923 94.1601L76.2773 91.5375L79.5215 89.5397L81.1365 92.1623L82.005 91.6274L78.2034 85.4541L77.3348 85.989L79.06 88.7904L75.8158 90.7882L74.0907 87.9868L73.2221 88.5217L77.0238 94.695L77.8923 94.1601Z" fill="white"/>
<path d="M63.5628 92.5919L62.5672 92.8135L63.9511 99.0314L61.6475 99.5441L61.8387 100.403L67.4416 99.156L67.2504 98.297L64.9468 98.8098L63.5628 92.5919Z" fill="white"/>
<path d="M51.9286 101.303L51.9405 98.223L55.7504 98.2377L55.7385 101.318L56.7585 101.322L56.7865 94.0717L55.7665 94.0678L55.7538 97.3577L51.9439 97.343L51.9566 94.0531L50.9366 94.0491L50.9086 101.299L51.9286 101.303Z" fill="white"/>
<path d="M46.5407 93.8169L41.7424 92.7297L41.5479 93.588L45.3515 94.4498L44.8189 96.8002L41.2397 95.9892L41.0452 96.8475L44.6245 97.6585L44.1383 99.8041L40.3347 98.9422L40.1403 99.8005L44.9386 100.888L46.5407 93.8169Z" fill="white"/>
<path d="M31.1652 96.7415L32.6812 89.2272L31.6285 88.6105L25.8414 93.6228L26.7646 94.1637L31.5982 89.8097L30.1988 96.1754L31.1652 96.7415Z" fill="white"/>
<path d="M21.6201 90.5717L22.4038 91.2245L27.0439 85.6539L26.2601 85.0011L21.6201 90.5717Z" fill="white"/>
<path d="M16.9301 80.8582C18.8165 79.2636 19.9817 80.1773 20.9436 81.3152L21.544 82.0254L17.3208 85.5955L16.7204 84.8853C15.7585 83.7474 15.0515 82.4464 16.9301 80.8582ZM17.3225 86.9297L22.8593 82.2492L21.581 80.7371C20.1026 78.9882 18.3665 78.2822 16.2587 80.064C14.1586 81.8394 14.5659 83.6687 16.0443 85.4176L17.3225 86.9297Z" fill="white"/>
<path d="M17.0038 75.0604L14.6752 70.7263L13.9 71.1428L15.7458 74.5783L13.6228 75.7189L11.8859 72.486L11.1107 72.9025L12.8476 76.1354L10.9096 77.1767L9.06381 73.7411L8.28861 74.1576L10.6172 78.4917L17.0038 75.0604Z" fill="white"/>
<path d="M9.42974 68.1208C7.6286 68.6236 6.36653 67.8961 6.01162 66.6247C5.65671 65.3533 6.35953 64.0774 8.16067 63.5746C9.9618 63.0718 11.2335 63.7966 11.5884 65.068C11.9433 66.3393 11.2309 67.618 9.42974 68.1208ZM7.88104 62.5729C5.77168 63.1617 4.62135 64.8429 5.18329 66.856C5.74523 68.869 7.60001 69.7113 9.70937 69.1225C11.8187 68.5337 12.9787 66.8498 12.4167 64.8367C11.8548 62.8237 9.99039 61.9841 7.88104 62.5729Z" fill="white"/>
<path d="M3.22065 48.2381L3.10975 49.433L9.04985 51.3301L2.85653 52.1613L2.75302 53.2765L10.142 52.1144L10.2566 50.8797L4.44876 48.9647L10.5126 48.1215L10.6272 46.8868L3.57553 44.4146L3.47665 45.48L9.41675 47.3771L3.22065 48.2381Z" fill="white"/>
<path d="M11.0143 42.931L11.3576 41.9493L10.0604 40.9024L11.1597 37.7591L12.8299 37.7393L13.193 36.701L5.4482 36.8846L5.05867 37.9985L11.0143 42.931ZM6.21579 37.8099L10.2328 37.7739L9.34154 40.3226L6.21579 37.8099Z" fill="white"/>
<path d="M15.2291 32.2268L15.7575 31.3544L10.3091 28.0541L11.5318 26.0356L10.7791 25.5797L7.80527 30.4892L8.55795 30.9451L9.78065 28.9266L15.2291 32.2268Z" fill="white"/>
<path d="M20.5629 21.1529C21.0845 21.9565 21.0803 22.9117 20.2874 23.7584C19.3645 24.7437 17.9273 24.7129 16.5844 23.455C15.2122 22.1698 15.166 20.7564 16.041 19.8222C16.8272 18.9828 17.8084 18.9154 18.6161 19.3842L19.2929 18.6616C17.9429 17.8356 16.473 18.103 15.4475 19.1978C14.053 20.6867 14.2385 22.6828 15.8734 24.2141C17.4791 25.718 19.4521 25.9082 20.874 24.3901C21.9473 23.2442 22.1887 21.7577 21.2397 20.4303L20.5629 21.1529Z" fill="white"/>
<path d="M25.0633 11.0355L26.7735 13.5971L23.6047 15.7126L21.8946 13.151L21.0463 13.7173L25.0718 19.7471L25.9201 19.1807L24.0933 16.4445L27.2621 14.329L29.0888 17.0652L29.9372 16.4989L25.9116 10.4691L25.0633 11.0355Z" fill="white"/>
<path d="M39.4186 12.0097L40.4051 11.7504L38.7857 5.58968L41.0681 4.98971L40.8444 4.13862L35.293 5.59788L35.5167 6.44897L37.7992 5.84899L39.4186 12.0097Z" fill="white"/>
<path d="M50.7579 2.82857L50.8649 5.90671L47.0572 6.03903L46.9502 2.96088L45.9308 2.99631L46.1826 10.2419L47.202 10.2065L47.0877 6.9185L50.8954 6.78618L51.0097 10.0742L52.0291 10.0388L51.7773 2.79315L50.7579 2.82857Z" fill="white"/>
<path d="M56.3802 10.0756L61.2166 10.9789L61.3781 10.1138L57.5444 9.39778L57.9869 7.02875L61.5945 7.70257L61.7561 6.83753L58.1485 6.16371L58.5524 4.00111L62.3861 4.71716L62.5477 3.85212L57.7113 2.9488L56.3802 10.0756Z" fill="white"/>
<path d="M71.8863 6.62415L70.6206 14.1846L71.6931 14.766L77.3107 9.56437L76.37 9.05448L71.6836 13.5665L72.871 7.15787L71.8863 6.62415Z" fill="white"/>
<path d="M81.6795 12.484L80.8748 11.8572L76.4198 17.5769L77.2245 18.2037L81.6795 12.484Z" fill="white"/>
<path d="M86.6969 22.026C84.8638 23.6815 83.6693 22.8064 82.6707 21.7006L82.0473 21.0104L86.1514 17.304L86.7748 17.9942C87.7734 19.1 88.5226 20.3772 86.6969 22.026ZM86.106 15.9706L80.7255 20.8298L82.0525 22.2993C83.5874 23.9988 85.3456 24.6477 87.3939 22.7978C89.4349 20.9547 88.9679 19.1396 87.4331 17.4401L86.106 15.9706Z" fill="white"/>
<path d="M86.8442 27.8366L89.3153 32.091L90.0763 31.649L88.1174 28.2767L90.2014 27.0662L92.0447 30.2397L92.8056 29.7977L90.9623 26.6242L92.8647 25.5192L94.8235 28.8916L95.5845 28.4496L93.1133 24.1952L86.8442 27.8366Z" fill="white"/>
<path d="M94.6491 34.4971C96.4321 33.9333 97.7182 34.6173 98.1162 35.8759C98.5142 37.1345 97.8552 38.4336 96.0722 38.9974C94.2892 39.5612 92.9936 38.8802 92.5956 37.6216C92.1976 36.363 92.8661 35.0609 94.6491 34.4971ZM96.3858 39.989C98.4739 39.3287 99.5663 37.6094 98.9362 35.6166C98.306 33.6239 96.4237 32.8452 94.3356 33.5055C92.2475 34.1658 91.1455 35.8882 91.7756 37.8809C92.4058 39.8736 94.2977 40.6493 96.3858 39.989Z" fill="white"/>
</svg>
